%
M48
M72
T01C0.0157
T02C0.0197
T03C0.0315
T04C0.0320
T05C0.0394
T06C0.0400
T07C0.0984
T08C0.1260
%
T01
X21034Y16034
X21034Y15659
X21034Y15284
X21034Y14909
X21034Y14534
X20159Y14534
X20159Y14909
X20159Y15284
X20159Y15659
X20159Y16034
X35284Y14534
X35284Y14909
X35284Y15284
X35284Y15659
X35284Y16034
X36034Y16034
X36034Y15659
X36034Y15284
X36034Y14909
X36034Y14534
X35284Y4284
X35284Y4659
X35284Y5034
X35284Y5409
X35284Y5784
X36034Y5784
X36034Y5409
X36034Y5034
X36034Y4659
X36034Y4284
X30284Y4284
X30284Y4659
X30284Y5034
X30284Y5409
X30284Y5784
X31034Y5784
X31034Y5409
X31034Y5034
X31034Y4659
X31034Y4284
X25284Y4284
X25284Y4659
X25284Y5034
X25284Y5409
X25284Y5784
X26034Y5784
X26034Y5409
X26034Y5034
X26034Y4659
X26034Y4284
X20159Y4284
X20159Y4659
X20159Y5034
X20159Y5409
X20159Y5784
X21034Y5784
X21034Y5409
X21034Y5034
X21034Y4659
X21034Y4284
X30284Y14534
X30284Y14909
X30284Y15284
X30284Y15659
X30284Y16034
X31034Y16034
X31034Y15659
X31034Y15284
X31034Y14909
X31034Y14534
X25284Y14534
X25284Y14909
X25284Y15284
X25284Y15659
X25284Y16034
X26034Y16034
X26034Y15659
X26034Y15284
X26034Y14909
X26034Y14534
T02
X16909Y4034
X15659Y2659
X11659Y5159
X8659Y5159
X5659Y2659
X5159Y7909
X11159Y9534
X11784Y10159
X10659Y11409
X9659Y11409
X9159Y11159
X8159Y11409
X6034Y12159
X5534Y13159
X5534Y14159
X4784Y14409
X8159Y13409
X9659Y13409
X10659Y13409
X11409Y12909
X12159Y12909
X12159Y13409
X15159Y14159
X10159Y16159
X16534Y10659
X17159Y10034
T03
X13159Y7159
X13159Y8159
X13159Y9159
X13159Y10159
X13159Y11159
X13159Y12159
X13159Y13159
X13159Y14159
X13159Y15159
X13159Y16159
X13159Y17159
X13159Y18159
X7159Y18159
X7159Y17159
X7159Y16159
X7159Y15159
X7159Y14159
X7159Y13159
X7159Y12159
X7159Y11159
X7159Y10159
X7159Y9159
X7159Y8159
X7159Y7159
X1159Y6659
X1159Y5659
X1159Y7659
X1159Y8659
X1159Y9659
X1159Y10659
X1159Y11659
X1159Y12659
T04
X38909Y4238
X38909Y5238
X38909Y15081
X38909Y14081
T05
X4659Y1659
X5659Y1659
X6659Y1659
X7659Y1659
X8659Y1659
X9659Y1659
X10659Y1659
X11659Y1659
X12659Y1659
X13659Y1659
X14659Y1659
X15659Y1659
X18659Y15659
X18659Y14659
X22659Y13077
X23659Y13077
X24124Y12329
X27659Y13077
X28659Y13077
X29124Y12329
X28659Y15242
X27659Y15242
X23659Y15242
X22659Y15242
X32659Y15242
X33659Y15242
X32659Y13077
X33659Y13077
X34124Y12329
X37409Y14081
X37409Y15081
X37409Y16081
X9159Y3659
X9159Y4659
X9159Y5659
X11159Y5659
X11159Y4659
X11159Y3659
X3659Y8659
X3659Y9659
X3659Y10659
X3659Y11659
X1659Y14659
X1659Y15659
X14659Y18659
X15659Y18659
X37409Y4238
X37409Y5238
X37409Y6238
T06
X19159Y7659
X19159Y8659
X19159Y9659
X19159Y10659
X19159Y11659
X19159Y12659
X34159Y10159
X33159Y10159
X32159Y10159
X29159Y10159
X28159Y10159
X27159Y10159
X24159Y10159
X23159Y10159
X22159Y10159
T07
X27411Y14159
X28907Y14159
X32411Y14159
X33907Y14159
X23907Y14159
X22411Y14159
T08
X2285Y2285
X2285Y18033
X18033Y18033
X37909Y18033
X37909Y8191
X37909Y2285
X18033Y2285
X23159Y2285
X28159Y2285
X33159Y2285
X37909Y12128
X33159Y18033
X28159Y18033
X23159Y18033
M30
